<svg xmlns="http://www.w3.org/2000/svg" width="40.038" height="40.038" viewBox="0 0 40.038 40.038"><defs><style>.a{fill:#dcf8e1;}.b{fill:#bef2f5;}.c{fill:#fff;}.d{fill:#216869;}.e{fill:#171719;}</style></defs><g transform="translate(-33.481 -33.481)"><g transform="translate(34.468 34.468)"><circle class="a" cx="18.786" cy="18.786" r="18.786" transform="translate(0 0)"/></g><g transform="translate(38.03 34.391)"><path class="b" d="M154.578,107.109a19.089,19.089,0,0,0-29.419-16.073l2.378,2.81a15.459,15.459,0,1,0,19.7,23.285l2.369,2.8A19.015,19.015,0,0,0,154.578,107.109Z" transform="translate(-120 -88)"/></g><g transform="translate(40.304 40.304)"><circle class="c" cx="12.95" cy="12.95" r="12.95" transform="translate(0 0)"/></g><g transform="translate(33.481 33.481)"><path class="d" d="M100.019,120.038a20.019,20.019,0,1,1,20.019-20.019A20.042,20.042,0,0,1,100.019,120.038Zm0-38.218a18.2,18.2,0,1,0,18.2,18.2A18.22,18.22,0,0,0,100.019,81.82Z" transform="translate(-80 -80)"/></g><g transform="translate(37.121 37.121)"><path class="d" d="M128.379,144.758a16.379,16.379,0,1,1,16.379-16.379A16.4,16.4,0,0,1,128.379,144.758Zm0-30.938a14.559,14.559,0,1,0,14.559,14.559A14.576,14.576,0,0,0,128.379,113.82Z" transform="translate(-112 -112)"/></g><g transform="translate(33.674 55.32)"><path class="e" d="M101.525,290.2a20.023,20.023,0,0,1-19.816-17.16.91.91,0,0,1,1.8-.258,18.208,18.208,0,0,0,26.68,13.406.91.91,0,0,1,.868,1.6A20.049,20.049,0,0,1,101.525,290.2Z" transform="translate(-81.7 -272.001)"/></g><path class="e" d="M.591-7.8V-9.137H2.056v-1.136H.591v-1.333H2.056V-15.78H3.99l2.6,4.173H10.1V-15.78h1.556v4.173H13.16v1.333H11.654v1.136H13.16V-7.8H11.654v4.116H9.818L7.209-7.8H3.62v4.116H2.056V-7.8ZM3.62-9.137H6.369l-.724-1.136H3.62Zm4.511,0H10.1v-1.136H7.423ZM3.62-11.607H4.805L3.62-13.475ZM10.1-5.985V-7.8H8.962Z" transform="translate(46.624 63.234)"/></g></svg>