<svg xmlns="http://www.w3.org/2000/svg" width="38.181" height="41.53" viewBox="0 0 38.181 41.53"><defs><style>.a{fill:#fff;}.b{fill:#f0e8ff;}.c{fill:#e0d4f9;}.d{fill:#d87779;}.e{fill:#bba0f1;}.f{fill:#171719;}</style></defs><g transform="translate(-20)"><g transform="translate(20.67 0.67)"><path class="a" d="M48.765,12.019H28.67a.67.67,0,0,1-.67-.67V8.67A.67.67,0,0,1,28.67,8h20.1a.67.67,0,0,1,.67.67v2.679A.67.67,0,0,1,48.765,12.019Z" transform="translate(-28 -8)"/></g><g transform="translate(20.67 0.67)"><path class="b" d="M34.7,10.01a1.34,1.34,0,0,1-1.34-1.34V8H28.67a.67.67,0,0,0-.67.67v2.679a.67.67,0,0,0,.67.67H47.425v-.67a1.34,1.34,0,0,0-1.34-1.34Z" transform="translate(-28 -8)"/></g><g transform="translate(20.67 8.708)"><path class="a" d="M48.765,108.019H28.67a.67.67,0,0,1-.67-.67V104.67a.67.67,0,0,1,.67-.67h20.1a.67.67,0,0,1,.67.67v2.679A.67.67,0,0,1,48.765,108.019Z" transform="translate(-28 -104)"/></g><g transform="translate(20.67 8.708)"><path class="b" d="M34.7,106.01a1.34,1.34,0,0,1-1.34-1.34V104H28.67a.67.67,0,0,0-.67.67v2.679a.67.67,0,0,0,.67.67H47.425v-.67a1.34,1.34,0,0,0-1.34-1.34Z" transform="translate(-28 -104)"/></g><g transform="translate(23.349 16.746)"><path class="a" d="M80.765,204.019H60.67a.67.67,0,0,1-.67-.67V200.67a.67.67,0,0,1,.67-.67h20.1a.67.67,0,0,1,.67.67v2.679A.67.67,0,0,1,80.765,204.019Z" transform="translate(-60 -200)"/></g><g transform="translate(23.349 16.746)"><path class="b" d="M66.7,202.009a1.34,1.34,0,0,1-1.34-1.34V200H60.67a.67.67,0,0,0-.67.67v2.679a.67.67,0,0,0,.67.67H79.425v-.67a1.34,1.34,0,0,0-1.34-1.34Z" transform="translate(-60 -200)"/></g><g transform="translate(22.009 24.784)"><path class="a" d="M64.765,300.019H44.67a.67.67,0,0,1-.67-.67V296.67a.67.67,0,0,1,.67-.67h20.1a.67.67,0,0,1,.67.67v2.679A.67.67,0,0,1,64.765,300.019Z" transform="translate(-44 -296)"/></g><g transform="translate(22.009 24.784)"><path class="b" d="M50.7,298.01a1.34,1.34,0,0,1-1.34-1.34V296H44.67a.67.67,0,0,0-.67.67v2.679a.67.67,0,0,0,.67.67H63.425v-.67a1.34,1.34,0,0,0-1.34-1.34Z" transform="translate(-44 -296)"/></g><g transform="translate(20.67 32.822)"><path class="a" d="M48.765,396.019H28.67a.67.67,0,0,1-.67-.67V392.67a.67.67,0,0,1,.67-.67h20.1a.67.67,0,0,1,.67.67v2.679A.67.67,0,0,1,48.765,396.019Z" transform="translate(-28 -392)"/></g><g transform="translate(20.67 32.822)"><path class="b" d="M34.7,394.009a1.34,1.34,0,0,1-1.34-1.34V392H28.67a.67.67,0,0,0-.67.67v2.679a.67.67,0,0,0,.67.67H47.425v-.67a1.34,1.34,0,0,0-1.34-1.34Z" transform="translate(-28 -392)"/></g><g transform="translate(23.349 4.689)"><path class="b" d="M80.765,60.019H60.67a.67.67,0,0,1-.67-.67V56.67a.67.67,0,0,1,.67-.67h20.1a.67.67,0,0,1,.67.67v2.679A.67.67,0,0,1,80.765,60.019Z" transform="translate(-60 -56)"/></g><g transform="translate(23.349 4.689)"><path class="c" d="M66.7,58.01a1.34,1.34,0,0,1-1.34-1.34V56H60.67a.67.67,0,0,0-.67.67v2.679a.67.67,0,0,0,.67.67H79.425v-.67a1.34,1.34,0,0,0-1.34-1.34Z" transform="translate(-60 -56)"/></g><g transform="translate(22.009 12.727)"><path class="b" d="M64.765,156.019H44.67a.67.67,0,0,1-.67-.67V152.67a.67.67,0,0,1,.67-.67h20.1a.67.67,0,0,1,.67.67v2.679A.67.67,0,0,1,64.765,156.019Z" transform="translate(-44 -152)"/></g><g transform="translate(22.009 12.727)"><path class="c" d="M50.7,154.01a1.34,1.34,0,0,1-1.34-1.34V152H44.67a.67.67,0,0,0-.67.67v2.679a.67.67,0,0,0,.67.67H63.425v-.67a1.34,1.34,0,0,0-1.34-1.34Z" transform="translate(-44 -152)"/></g><g transform="translate(20.67 20.765)"><path class="b" d="M48.765,252.019H28.67a.67.67,0,0,1-.67-.67V248.67a.67.67,0,0,1,.67-.67h20.1a.67.67,0,0,1,.67.67v2.679A.67.67,0,0,1,48.765,252.019Z" transform="translate(-28 -248)"/></g><g transform="translate(20.67 20.765)"><path class="c" d="M34.7,250.01a1.34,1.34,0,0,1-1.34-1.34V248H28.67a.67.67,0,0,0-.67.67v2.679a.67.67,0,0,0,.67.67H47.425v-.67a1.34,1.34,0,0,0-1.34-1.34Z" transform="translate(-28 -248)"/></g><g transform="translate(23.349 28.803)"><path class="c" d="M80.765,348.019H60.67a.67.67,0,0,1-.67-.67V344.67a.67.67,0,0,1,.67-.67h20.1a.67.67,0,0,1,.67.67v2.679A.67.67,0,0,1,80.765,348.019Z" transform="translate(-60 -344)"/></g><g transform="translate(23.349 28.803)"><path class="c" d="M66.7,346.01a1.34,1.34,0,0,1-1.34-1.34V344H60.67a.67.67,0,0,0-.67.67v2.679a.67.67,0,0,0,.67.67H79.425v-.67a1.34,1.34,0,0,0-1.34-1.34Z" transform="translate(-60 -344)"/></g><g transform="translate(22.009 36.841)"><path class="b" d="M64.765,444.019H44.67a.67.67,0,0,1-.67-.67V440.67a.67.67,0,0,1,.67-.67h20.1a.67.67,0,0,1,.67.67v2.679A.67.67,0,0,1,64.765,444.019Z" transform="translate(-44 -440)"/></g><g transform="translate(22.009 36.841)"><path class="c" d="M50.7,442.01a1.34,1.34,0,0,1-1.34-1.34V440H44.67a.67.67,0,0,0-.67.67v2.679a.67.67,0,0,0,.67.67H63.425v-.67a1.34,1.34,0,0,0-1.34-1.34Z" transform="translate(-44 -440)"/></g><g transform="translate(21.34 36.171)"><path class="d" d="M57.435,437.359H37.34a1.341,1.341,0,0,1-1.34-1.34V433.34A1.341,1.341,0,0,1,37.34,432h20.1a1.341,1.341,0,0,1,1.34,1.34v2.679A1.341,1.341,0,0,1,57.435,437.359Zm-20.1-4.019v2.679h20.1V433.34Z" transform="translate(-36 -432)"/></g><g transform="translate(36.143 19.425)"><circle class="c" cx="10.5" cy="10.5" r="10.5" transform="translate(0.106 0.074)"/></g><g transform="translate(46.793 19.425)"><path class="b" d="M346.877,250.934A10.715,10.715,0,0,0,340,232v12.057Z" transform="translate(-340 -232)"/></g><g transform="translate(38.822 22.105)"><circle class="b" cx="8" cy="8" r="8" transform="translate(0.427 0.395)"/></g><g transform="translate(46.793 22.105)"><path class="a" d="M346.029,272.038a5.978,5.978,0,0,1-1.217,3.621,2.031,2.031,0,0,0,.146,2.676l.013.013A8.033,8.033,0,0,0,340,264v.256a1.969,1.969,0,0,0,1.45,1.93A6.039,6.039,0,0,1,346.029,272.038Z" transform="translate(-340 -264)"/></g><g transform="translate(20)"><path class="e" d="M46.793,18.755a11.453,11.453,0,0,0-1.34.079V17.416a1.341,1.341,0,0,0-1.34-1.34V13.4a1.341,1.341,0,0,0-1.34-1.34V9.378h1.34a1.341,1.341,0,0,0,1.34-1.34V5.359a1.341,1.341,0,0,0-1.34-1.34h-1.34V1.34A1.341,1.341,0,0,0,41.435,0H21.34A1.341,1.341,0,0,0,20,1.34V4.019a1.341,1.341,0,0,0,1.34,1.34h1.34V8.038H21.34A1.341,1.341,0,0,0,20,9.378v2.679a1.341,1.341,0,0,0,1.34,1.34v2.679a1.341,1.341,0,0,0,1.34,1.34V20.1H21.34A1.341,1.341,0,0,0,20,21.435v2.679a1.341,1.341,0,0,0,1.34,1.34v2.679a1.341,1.341,0,0,0,1.34,1.34v2.679H21.34A1.341,1.341,0,0,0,20,33.492v2.679a1.341,1.341,0,0,0,1.34,1.34H38.119a11.385,11.385,0,1,0,8.675-18.755Zm-2.679-1.34v1.659A11.31,11.31,0,0,0,41.44,20.1H24.019V17.416Zm-1.339-1.34h-20.1V13.4h20.1ZM44.114,5.359V8.038h-20.1V5.359ZM21.34,4.019V1.34h20.1V4.019H21.34Zm0,8.038V9.378h20.1v2.679H21.34Zm0,12.057V21.435H39.465a11.477,11.477,0,0,0-2.327,2.679Zm14.244,8.038H24.019V29.473H35.427c-.013.222-.02.445-.02.67A11.412,11.412,0,0,0,35.584,32.152Zm0-4.019h-12.9V25.454H36.417A11.291,11.291,0,0,0,35.584,28.133ZM21.34,36.171V33.492H35.909a11.336,11.336,0,0,0,1.228,2.679ZM46.793,40.19A10.048,10.048,0,1,1,56.841,30.143,10.059,10.059,0,0,1,46.793,40.19Z" transform="translate(-20)"/><path class="e" d="M244.708,256a8.708,8.708,0,1,0,8.708,8.708A8.718,8.718,0,0,0,244.708,256Zm0,16.076a7.368,7.368,0,1,1,7.368-7.368A7.377,7.377,0,0,1,244.708,272.076Z" transform="translate(-217.914 -234.565)"/></g><g transform="translate(20 24.114)"><path class="f" d="M52.084,384.006a.67.67,0,0,0-.9-.309,9.95,9.95,0,0,1-4.4,1.01,10.05,10.05,0,0,1-9.871-8.163.67.67,0,0,0-1.316.25,11.372,11.372,0,0,0,5.83,7.913H22.679v-2.679h8.038a.67.67,0,1,0,0-1.34H21.34v-2.679a.67.67,0,0,0-1.34,0v2.679a1.341,1.341,0,0,0,1.34,1.34v2.679a1.341,1.341,0,0,0,1.34,1.34h20.1a1.332,1.332,0,0,0,.97-.415,11.406,11.406,0,0,0,8.031-.73A.67.67,0,0,0,52.084,384.006Z" transform="translate(-20 -368.631)"/><path class="f" d="M.362-3.617v-1.17H1.394v-.78H.362v-1.17H1.394v-2.62H3.246l1.491,2.62H6.612v-2.62H8.258v2.62h.935v1.17H8.258v.78h.935v1.17H8.258V-.9H6.491L4.932-3.617H3.04V-.9H1.394V-3.617ZM3.04-4.786H4.255l-.447-.78H3.04Zm2.81,0h.763v-.78h-1.2ZM3.04-6.736h.1l-.1-.172Zm3.572,3.28v-.161H6.52Z" transform="translate(22.498 11.305)"/></g></g></svg>