<svg xmlns="http://www.w3.org/2000/svg" width="45" height="45" viewBox="0 0 45 45"><defs><style>.a{fill:#dcf8e1;}.b{fill:#00abd5;}.c{fill:#bef2f5;}.d{fill:#fff;}.e{fill:#00bebe;}.f{fill:#8cebaf;}.g{fill:#9c89c2;}.h{fill:#283246;}</style></defs><g transform="translate(0)"><g transform="translate(0.702 0.702)"><path class="a" d="M46.658,24.86H41.665l3.53-3.53a4.922,4.922,0,0,0-6.961-6.961L34.7,17.9V12.906a4.922,4.922,0,1,0-9.844,0V17.9l-3.53-3.531a4.922,4.922,0,0,0-6.961,6.961l3.53,3.53H12.906a4.922,4.922,0,1,0,0,9.844H17.9l-3.53,3.53A4.922,4.922,0,0,0,21.33,45.2l3.53-3.53v4.993a4.922,4.922,0,1,0,9.844,0V41.665l3.53,3.53A4.922,4.922,0,1,0,45.2,38.235l-3.53-3.53h4.993a4.922,4.922,0,1,0,0-9.844Z" transform="translate(-7.984 -7.984)"/></g><g transform="translate(5.624 22.571)"><path class="b" d="M65.429,272.168a4.922,4.922,0,0,1,0-6.961l6.961-6.961a4.922,4.922,0,1,1,6.961,6.961l-6.961,6.961A4.922,4.922,0,0,1,65.429,272.168Z" transform="translate(-63.988 -256.804)"/></g><g transform="translate(17.578 24.609)"><path class="c" d="M204.918,299.69A4.922,4.922,0,0,1,200,294.768v-9.844a4.922,4.922,0,1,1,9.844,0v9.844A4.922,4.922,0,0,1,204.918,299.69Z" transform="translate(-199.996 -280.001)"/></g><g transform="translate(0.702 17.578)"><path class="c" d="M7.984,204.918A4.922,4.922,0,0,1,12.906,200h9.844a4.922,4.922,0,1,1,0,9.844H12.906a4.922,4.922,0,0,1-4.922-4.922Z" transform="translate(-7.984 -199.996)"/></g><g transform="translate(22.571 5.624)"><path class="a" d="M258.245,79.352a4.922,4.922,0,0,1,0-6.961l6.961-6.961a4.922,4.922,0,0,1,6.961,6.961l-6.961,6.961A4.922,4.922,0,0,1,258.245,79.352Z" transform="translate(-256.804 -63.988)"/></g><g transform="translate(20.443 0.702)"><path class="d" d="M256.447,29.782a4.922,4.922,0,0,0-4.922-4.922h-4.993l3.53-3.53a4.922,4.922,0,0,0-6.961-6.961L239.571,17.9V12.906a4.914,4.914,0,0,0-6.98-4.467,2.108,2.108,0,0,0,2.057,1.655,2.816,2.816,0,0,1,2.813,2.813v7.032L239.57,17.9l.12,2.863,4.9-4.9a2.813,2.813,0,0,1,3.978,3.978l-5.033,5.033,2.994-.011-2.039,2.109h7.032a2.816,2.816,0,0,1,2.813,2.813,2.108,2.108,0,0,0,1.655,2.057A4.892,4.892,0,0,0,256.447,29.782Z" transform="translate(-232.591 -7.984)"/></g><g transform="translate(16.876 0)"><path class="e" d="M197.636,21.092a5.63,5.63,0,0,1-5.624-5.624V5.624a5.624,5.624,0,1,1,11.248,0v9.844A5.63,5.63,0,0,1,197.636,21.092Zm0-19.689a4.225,4.225,0,0,0-4.221,4.22v9.844a4.221,4.221,0,0,0,8.441,0V5.624a4.225,4.225,0,0,0-4.221-4.22Z" transform="translate(-192.012 0)"/></g><g transform="translate(16.876 23.908)"><path class="e" d="M197.636,293.109a5.63,5.63,0,0,1-5.624-5.624v-9.844a5.624,5.624,0,0,1,11.248,0v9.844A5.63,5.63,0,0,1,197.636,293.109Zm0-19.689a4.225,4.225,0,0,0-4.221,4.22v9.844a4.221,4.221,0,0,0,8.441,0v-9.844A4.225,4.225,0,0,0,197.636,273.421Z" transform="translate(-192.012 -272.017)"/></g><g transform="translate(23.908 16.876)"><path class="e" d="M287.486,203.26h-9.844a5.624,5.624,0,0,1,0-11.248h9.844a5.624,5.624,0,0,1,0,11.248Zm-9.844-9.844a4.22,4.22,0,0,0,0,8.441h9.844a4.22,4.22,0,1,0,0-8.441Z" transform="translate(-272.018 -192.012)"/></g><g transform="translate(0 16.876)"><path class="e" d="M15.468,203.26H5.624a5.624,5.624,0,1,1,0-11.248h9.844a5.624,5.624,0,0,1,0,11.248Zm-9.844-9.844a4.22,4.22,0,1,0,0,8.441h9.844a4.22,4.22,0,0,0,0-8.441Z" transform="translate(0 -192.012)"/></g><g transform="translate(21.848 4.943)"><path class="e" d="M254.207,74.448a5.624,5.624,0,0,1-3.977-9.6l6.961-6.961a5.624,5.624,0,1,1,7.954,7.953L258.184,72.8a5.587,5.587,0,0,1-3.977,1.647Zm6.961-16.805a4.193,4.193,0,0,0-2.984,1.236l-6.961,6.961a4.22,4.22,0,0,0,0,5.968h0a4.22,4.22,0,0,0,5.968,0l6.961-6.961a4.22,4.22,0,0,0-2.984-7.2Z" transform="translate(-248.583 -56.239)"/></g><g transform="translate(4.943 21.848)"><path class="e" d="M61.862,266.79a5.622,5.622,0,0,1-3.977-9.6l6.961-6.961a5.624,5.624,0,1,1,7.954,7.953l-6.961,6.961A5.607,5.607,0,0,1,61.862,266.79Zm6.961-16.8a4.193,4.193,0,0,0-2.984,1.236l-6.961,6.961a4.22,4.22,0,0,0,5.968,5.969l6.961-6.961a4.22,4.22,0,0,0-2.984-7.2Z" transform="translate(-56.238 -248.584)"/></g><g transform="translate(21.848 21.848)"><path class="e" d="M261.168,266.794a5.587,5.587,0,0,1-3.977-1.647l-6.961-6.961a5.624,5.624,0,0,1,7.954-7.953l6.961,6.961a5.624,5.624,0,0,1-3.977,9.6Zm-6.961-16.805a4.22,4.22,0,0,0-2.984,7.2l6.961,6.961a4.22,4.22,0,1,0,5.968-5.969l-6.961-6.961a4.193,4.193,0,0,0-2.984-1.236Z" transform="translate(-248.583 -248.585)"/></g><g transform="translate(4.943 4.943)"><path class="e" d="M68.823,74.447A5.587,5.587,0,0,1,64.846,72.8l-6.961-6.961a5.624,5.624,0,0,1,7.954-7.953L72.8,64.846a5.624,5.624,0,0,1-3.977,9.6ZM61.862,57.642a4.22,4.22,0,0,0-2.984,7.2l6.961,6.961a4.22,4.22,0,1,0,5.968-5.969l-6.961-6.961a4.193,4.193,0,0,0-2.984-1.236Z" transform="translate(-56.238 -56.238)"/></g><path class="b" d="M73.8,75.2a5.661,5.661,0,0,0-.6.032,5.733,5.733,0,0,0-.4-.444,5.641,5.641,0,0,0-1.344-1A5.626,5.626,0,0,0,72.8,64.847l-6.961-6.961a5.624,5.624,0,1,0-7.954,7.953L64.846,72.8a5.642,5.642,0,0,0,1.344,1,5.642,5.642,0,0,0-1.344,1l-6.961,6.961a5.624,5.624,0,0,0,7.954,7.953l2.332-2.332v3.3a5.624,5.624,0,0,0,11.248,0V80.828A5.63,5.63,0,0,0,73.8,75.2Zm-.752,3.564a4.193,4.193,0,0,1-1.236,2.984l-2.233,2.233V80.828a4.228,4.228,0,0,1,2.98-4.034A4.2,4.2,0,0,1,73.043,78.768ZM58.878,64.847a4.22,4.22,0,0,1,5.968-5.969l6.961,6.961a4.22,4.22,0,0,1-5.968,5.969Zm5.968,23.866a4.22,4.22,0,1,1-5.968-5.969l6.961-6.961a4.22,4.22,0,0,1,5.808-.152,5.632,5.632,0,0,0-3.475,5.2v4.561Zm13.169,1.959a4.221,4.221,0,0,1-8.441,0v-4.7L72.8,82.745a5.637,5.637,0,0,0,1.221-6.131,4.226,4.226,0,0,1,3.995,4.214Z" transform="translate(-51.295 -51.296)"/><path class="e" d="M214.512,16.876h-3.3l2.333-2.333a5.624,5.624,0,0,0-7.954-7.953L203.26,8.922v-3.3a5.624,5.624,0,1,0-11.248,0v9.844a5.622,5.622,0,0,0,6.22,5.592,5.6,5.6,0,0,0,.843.843,5.622,5.622,0,0,0,5.592,6.22h9.844a5.624,5.624,0,0,0,0-11.248Zm-7.927-9.294a4.22,4.22,0,1,1,5.968,5.969l-3.325,3.325h-4.561a5.606,5.606,0,0,0-1.657.249,5.606,5.606,0,0,0,.249-1.657V10.908Zm-8.2,9.945a4.193,4.193,0,0,1,1.236-2.984l2.233-2.233v3.157a4.228,4.228,0,0,1-2.98,4.034A4.2,4.2,0,0,1,198.388,17.528Zm6.28.752h3.157l-2.233,2.233a4.226,4.226,0,0,1-4.959.748A4.228,4.228,0,0,1,204.668,18.28Zm-11.252-2.811V5.624a4.22,4.22,0,0,1,8.441,0v4.7l-3.225,3.225a5.637,5.637,0,0,0-1.221,6.131A4.226,4.226,0,0,1,193.415,15.468Zm21.1,11.252h-9.844a4.226,4.226,0,0,1-4.214-3.994,5.637,5.637,0,0,0,6.131-1.221l3.225-3.225h4.7a4.22,4.22,0,1,1,0,8.441Z" transform="translate(-175.136 0)"/><g transform="translate(19.689 19.689)"><path class="e" d="M226.825,229.637a2.811,2.811,0,1,1,2.811-2.811A2.814,2.814,0,0,1,226.825,229.637Zm0-4.219a1.408,1.408,0,1,0,1.408,1.408A1.409,1.409,0,0,0,226.825,225.418Z" transform="translate(-224.014 -224.014)"/></g><g transform="translate(21.798 0)"><path class="f" d="M270.516,23.2a.7.7,0,0,1-.7-.7,4.225,4.225,0,0,0-4.221-4.22H260.6a.7.7,0,0,1-.5-1.2l3.53-3.53a4.22,4.22,0,0,0-5.969-5.969l-3.53,3.53a.7.7,0,0,1-1.2-.5V5.624a4.225,4.225,0,0,0-4.22-4.22.7.7,0,0,1,0-1.4,5.63,5.63,0,0,1,5.624,5.624v3.3l2.332-2.333a5.624,5.624,0,1,1,7.953,7.953L262.3,16.876h3.3a5.63,5.63,0,0,1,5.624,5.624A.7.7,0,0,1,270.516,23.2Z" transform="translate(-248.016 0)"/></g><g transform="translate(0 16.876)"><path class="g" d="M15.468,203.26H5.624a5.624,5.624,0,1,1,0-11.248h9.844a5.624,5.624,0,0,1,0,11.248Zm-9.844-9.844a4.22,4.22,0,1,0,0,8.441h9.844a4.22,4.22,0,0,0,0-8.441Z" transform="translate(0 -192.012)"/></g><g transform="translate(21.848 21.848)"><path class="g" d="M261.168,266.794a5.587,5.587,0,0,1-3.977-1.647l-6.961-6.961a5.624,5.624,0,0,1,7.954-7.953l6.961,6.961a5.624,5.624,0,0,1-3.977,9.6Zm-6.961-16.805a4.22,4.22,0,0,0-2.984,7.2l6.961,6.961a4.22,4.22,0,1,0,5.968-5.969l-6.961-6.961a4.193,4.193,0,0,0-2.984-1.236Z" transform="translate(-248.583 -248.585)"/></g><g transform="translate(0 21.798)"><path class="h" d="M22.5,271.218a5.63,5.63,0,0,1-5.624-5.624v-3.3l-2.332,2.333a5.624,5.624,0,1,1-7.953-7.953l2.332-2.333h-3.3A5.63,5.63,0,0,1,0,248.718a.7.7,0,0,1,1.4,0,4.225,4.225,0,0,0,4.221,4.22h4.993a.7.7,0,0,1,.5,1.2l-3.53,3.53a4.22,4.22,0,0,0,5.968,5.969l3.53-3.531a.7.7,0,0,1,1.2.5v4.993a4.225,4.225,0,0,0,4.221,4.22.7.7,0,0,1,0,1.4Z" transform="translate(0 -248.016)"/></g><g transform="translate(19.689 19.689)"><path class="h" d="M226.825,229.637a2.811,2.811,0,1,1,2.811-2.811A2.814,2.814,0,0,1,226.825,229.637Zm0-4.219a1.408,1.408,0,1,0,1.408,1.408A1.409,1.409,0,0,0,226.825,225.418Z" transform="translate(-224.014 -224.014)"/></g></g></svg>