<svg xmlns="http://www.w3.org/2000/svg" width="56.145" height="45.618" viewBox="0 0 56.145 45.618"><defs><style>.a{fill:#fff;}.b{fill:#d2f1f2;}.c{fill:#9de1e3;}.d{fill:#d6f3dc;}.e{fill:#216869;}.f{fill:#171719;}.g{fill:#9ababb;}</style></defs><g transform="translate(0 -48)"><g transform="translate(11.732 48.838)"><circle class="a" cx="21.788" cy="21.788" r="21.788" transform="translate(0 0)"/></g><g transform="translate(5.866 48.838)"><ellipse class="a" cx="22.207" cy="21.788" rx="22.207" ry="21.788" transform="translate(0 0)"/></g><g transform="translate(10.527 48)"><path class="b" d="M118.809,93.618a22.809,22.809,0,1,1,22.809-22.809A22.835,22.835,0,0,1,118.809,93.618Zm0-43.864a21.055,21.055,0,1,0,21.055,21.055A21.078,21.078,0,0,0,118.809,49.755Z" transform="translate(-96 -48)"/></g><g transform="translate(5.264 48)"><path class="c" d="M70.809,93.618A22.809,22.809,0,1,1,93.618,70.809,22.835,22.835,0,0,1,70.809,93.618Zm0-43.864A21.055,21.055,0,1,0,91.864,70.809,21.078,21.078,0,0,0,70.809,49.755Z" transform="translate(-48 -48)"/></g><g transform="translate(0.838 48.838)"><circle class="d" cx="21.788" cy="21.788" r="21.788" transform="translate(0 0)"/></g><g transform="translate(1.676 72.302)"><path class="c" d="M26.681,267.162l-.024,0a11.255,11.255,0,0,1-9.723-9.828A1.592,1.592,0,0,0,15.385,256H8a20.111,20.111,0,0,0,20.111,20.111v-7.353a1.625,1.625,0,0,0-1.43-1.6Z" transform="translate(-8 -256)"/></g><g transform="translate(12.127 60.127)"><ellipse class="a" cx="10.949" cy="10.95" rx="10.949" ry="10.95" transform="translate(0 0)"/></g><g transform="translate(0 48)"><path class="e" d="M22.809,93.618A22.809,22.809,0,1,1,45.618,70.809,22.835,22.835,0,0,1,22.809,93.618Zm0-43.864A21.055,21.055,0,1,0,43.864,70.809,21.078,21.078,0,0,0,22.809,49.755Z" transform="translate(0 -48)"/></g><g transform="translate(0 63.772)"><path class="f" d="M22.809,221.671a22.827,22.827,0,0,1-21.9-29.215.877.877,0,1,1,1.684.492,21.073,21.073,0,0,0,25.267,26.358.877.877,0,1,1,.42,1.7A22.9,22.9,0,0,1,22.809,221.671Z" transform="translate(0 -191.825)"/></g><g transform="translate(9.687 57.687)"><path class="g" d="M125.122,186.244a13.122,13.122,0,1,1,13.122-13.122A13.137,13.137,0,0,1,125.122,186.244Zm0-24.057a10.935,10.935,0,1,0,10.935,10.935A10.947,10.947,0,0,0,125.122,162.187Z" transform="translate(-112 -160)"/><path class="e" d="M5.677,16.8.245,11.365a.836.836,0,0,1,0-1.182L1.427,9A.836.836,0,0,1,2.609,9l3.66,3.66,7.839-7.839a.836.836,0,0,1,1.182,0L16.471,6a.836.836,0,0,1,0,1.182L6.859,16.8A.836.836,0,0,1,5.677,16.8Z" transform="translate(4.764 3.502)"/></g></g></svg>