<svg xmlns="http://www.w3.org/2000/svg" xmlns:xlink="http://www.w3.org/1999/xlink" width="353" height="110" viewBox="0 0 353 110"><defs><style>.a{fill:#edfafa;}.b{clip-path:url(#a);}.c{fill:url(#b);}</style><clipPath id="a"><rect class="a" width="353" height="110" rx="10" transform="translate(40 197)"/></clipPath><linearGradient id="b" x1="0.5" x2="0.5" y2="1" gradientUnits="objectBoundingBox"><stop offset="0" stop-color="#9de1e3"/><stop offset="1" stop-color="#f1e34d"/></linearGradient></defs><g class="b" transform="translate(-40 -197)"><path class="c" d="M222.972,91.635a107.464,107.464,0,0,0-6.737-20.186,122.3,122.3,0,0,0-24.2-35.478A118.986,118.986,0,0,0,135.757,3.428c-3.581-.9-7.211-1.652-10.882-2.2-.459-.068-.917-.146-1.377-.208L122.117.842c-.461-.061-.921-.123-1.383-.178L119.345.525,117.956.39l-1.394-.1-1.394-.1-1.4-.068-1.4-.066-1.4-.029L109.571,0,108.13.02l-1.443.021c-.48.018-.96.047-1.44.07l-1.44.076c-.479.033-.956.082-1.435.12A80.433,80.433,0,0,0,91.046,2.165,90,90,0,0,0,69.882,10.2,111.517,111.517,0,0,0,51.347,22.573,136.53,136.53,0,0,0,35.53,37.9,150.268,150.268,0,0,0,22.322,55.34q-2.972,4.588-5.59,9.377t-4.844,9.769C10.394,77.8,9.045,81.174,7.8,84.582,6.58,88,5.467,91.461,4.519,94.963A129.468,129.468,0,0,0,.561,116.342C.2,119.95.022,123.576,0,127.2c-.008,1.814.031,3.611.122,5.441S.366,136.3.6,138.125a65.575,65.575,0,0,0,6.275,20.931A70.8,70.8,0,0,0,19.42,176.619a97.578,97.578,0,0,0,16.513,13.553,144.361,144.361,0,0,0,18.6,10.333q4.822,2.251,9.769,4.218c3.3,1.3,6.635,2.523,10,3.641A195.5,195.5,0,0,0,94.855,214a182.844,182.844,0,0,0,21.089,3.325,144.657,144.657,0,0,0,21.589.656,95.294,95.294,0,0,0,21.789-3.739,87.223,87.223,0,0,0,20.316-8.934,85.767,85.767,0,0,0,17.234-13.842l.957-.989.477-.5c.154-.171.3-.349.454-.521l1.8-2.078.9-1.037.846-1.083,1.681-2.163.418-.539.392-.561.783-1.123,1.557-2.24,1.445-2.309.72-1.152.358-.576.331-.594a107.127,107.127,0,0,0,8.781-19.636,124.91,124.91,0,0,0,4.945-20.655A142.083,142.083,0,0,0,225.3,112.66,94.923,94.923,0,0,0,222.972,91.635Zm-1.2,41.72a90.834,90.834,0,0,1-6.445,19.63A87.039,87.039,0,0,1,204.7,170.354l-.382.5-.407.485-.815.964-1.624,1.921-1.719,1.833-.856.914-.428.457-.451.434-1.8,1.734-.9.865-.94.816-1.873,1.634c-.156.134-.309.271-.468.4l-.488.385-.972.766a91.937,91.937,0,0,1-16.552,10.447,99.053,99.053,0,0,1-18.184,6.669l-2.343.613-2.374.5c-.792.16-1.576.355-2.373.5l-2.4.4-1.2.2-.6.1c-.2.037-.4.051-.6.078l-2.415.3c-1.6.231-3.23.33-4.85.465-6.411.463-13.246.438-19.964.258q-10.108-.29-20.22-1.35a201.081,201.081,0,0,1-20.091-3.146c-3.319-.712-6.625-1.507-9.893-2.439s-6.51-1.96-9.7-3.138a105.21,105.21,0,0,1-18.373-8.771,83.45,83.45,0,0,1-8.359-5.793,72.083,72.083,0,0,1-7.5-6.828,58.857,58.857,0,0,1-11.272-16.607,53.425,53.425,0,0,1-3.185-9.475,54.819,54.819,0,0,1-1.376-9.875c-.08-1.66-.089-3.326-.036-4.986s.174-3.37.328-5.046a99.933,99.933,0,0,1,1.454-10.017A122.933,122.933,0,0,1,14.089,98.1q1.773-4.726,3.888-9.307c1.391-3.059,2.907-6.055,4.493-9.006s3.269-5.849,5.04-8.687,3.627-5.613,5.563-8.327A137.9,137.9,0,0,1,45.724,47.395,122.859,122.859,0,0,1,60.393,34.257a100.5,100.5,0,0,1,16.438-10.2,81.807,81.807,0,0,1,17.772-6.4,70.1,70.1,0,0,1,9.184-1.478c.384-.037.769-.08,1.154-.109L106.1,16l1.155-.066,1.156-.025,1.157-.025,1.2.01,1.2,0,1.2.037,1.2.037,1.2.07,1.2.065,1.2.1,1.2.093c.4.037.8.082,1.2.123l1.2.125c.4.039.8.1,1.2.149q4.792.611,9.55,1.636A123.451,123.451,0,0,1,150.992,24,142.591,142.591,0,0,1,185.572,43.35a116.4,116.4,0,0,1,14.953,13.575,95.755,95.755,0,0,1,12.207,16.354,81.827,81.827,0,0,1,8.166,18.9,75.032,75.032,0,0,1,2.938,20.486A100.046,100.046,0,0,1,221.775,133.354Z" transform="translate(516.067 54.799) rotate(90)"/><path class="c" d="M222.972,91.635a107.464,107.464,0,0,0-6.737-20.186,122.3,122.3,0,0,0-24.2-35.478A118.986,118.986,0,0,0,135.757,3.428c-3.581-.9-7.211-1.652-10.882-2.2-.459-.068-.917-.146-1.377-.208L122.117.842c-.461-.061-.921-.123-1.383-.178L119.345.525,117.956.39l-1.394-.1-1.394-.1-1.4-.068-1.4-.066-1.4-.029L109.571,0,108.13.02l-1.443.021c-.48.018-.96.047-1.44.07l-1.44.076c-.479.033-.956.082-1.435.12A80.433,80.433,0,0,0,91.046,2.165,90,90,0,0,0,69.882,10.2,111.517,111.517,0,0,0,51.347,22.573,136.53,136.53,0,0,0,35.53,37.9,150.268,150.268,0,0,0,22.322,55.34q-2.972,4.588-5.59,9.377t-4.844,9.769C10.394,77.8,9.045,81.174,7.8,84.582,6.58,88,5.467,91.461,4.519,94.963A129.468,129.468,0,0,0,.561,116.342C.2,119.95.022,123.576,0,127.2c-.008,1.814.031,3.611.122,5.441S.366,136.3.6,138.125a65.575,65.575,0,0,0,6.275,20.931A70.8,70.8,0,0,0,19.42,176.619a97.578,97.578,0,0,0,16.513,13.553,144.361,144.361,0,0,0,18.6,10.333q4.822,2.251,9.769,4.218c3.3,1.3,6.635,2.523,10,3.641A195.5,195.5,0,0,0,94.855,214a182.844,182.844,0,0,0,21.089,3.325,144.657,144.657,0,0,0,21.589.656,95.294,95.294,0,0,0,21.789-3.739,87.223,87.223,0,0,0,20.316-8.934,85.767,85.767,0,0,0,17.234-13.842l.957-.989.477-.5c.154-.171.3-.349.454-.521l1.8-2.078.9-1.037.846-1.083,1.681-2.163.418-.539.392-.561.783-1.123,1.557-2.24,1.445-2.309.72-1.152.358-.576.331-.594a107.127,107.127,0,0,0,8.781-19.636,124.91,124.91,0,0,0,4.945-20.655A142.083,142.083,0,0,0,225.3,112.66,94.923,94.923,0,0,0,222.972,91.635Zm-1.2,41.72a90.834,90.834,0,0,1-6.445,19.63A87.039,87.039,0,0,1,204.7,170.354l-.382.5-.407.485-.815.964-1.624,1.921-1.719,1.833-.856.914-.428.457-.451.434-1.8,1.734-.9.865-.94.816-1.873,1.634c-.156.134-.309.271-.468.4l-.488.385-.972.766a91.937,91.937,0,0,1-16.552,10.447,99.053,99.053,0,0,1-18.184,6.669l-2.343.613-2.374.5c-.792.16-1.576.355-2.373.5l-2.4.4-1.2.2-.6.1c-.2.037-.4.051-.6.078l-2.415.3c-1.6.231-3.23.33-4.85.465-6.411.463-13.246.438-19.964.258q-10.108-.29-20.22-1.35a201.081,201.081,0,0,1-20.091-3.146c-3.319-.712-6.625-1.507-9.893-2.439s-6.51-1.96-9.7-3.138a105.21,105.21,0,0,1-18.373-8.771,83.45,83.45,0,0,1-8.359-5.793,72.083,72.083,0,0,1-7.5-6.828,58.857,58.857,0,0,1-11.272-16.607,53.425,53.425,0,0,1-3.185-9.475,54.819,54.819,0,0,1-1.376-9.875c-.08-1.66-.089-3.326-.036-4.986s.174-3.37.328-5.046a99.933,99.933,0,0,1,1.454-10.017A122.933,122.933,0,0,1,14.089,98.1q1.773-4.726,3.888-9.307c1.391-3.059,2.907-6.055,4.493-9.006s3.269-5.849,5.04-8.687,3.627-5.613,5.563-8.327A137.9,137.9,0,0,1,45.724,47.395,122.859,122.859,0,0,1,60.393,34.257a100.5,100.5,0,0,1,16.438-10.2,81.807,81.807,0,0,1,17.772-6.4,70.1,70.1,0,0,1,9.184-1.478c.384-.037.769-.08,1.154-.109L106.1,16l1.155-.066,1.156-.025,1.157-.025,1.2.01,1.2,0,1.2.037,1.2.037,1.2.07,1.2.065,1.2.1,1.2.093c.4.037.8.082,1.2.123l1.2.125c.4.039.8.1,1.2.149q4.792.611,9.55,1.636A123.451,123.451,0,0,1,150.992,24,142.591,142.591,0,0,1,185.572,43.35a116.4,116.4,0,0,1,14.953,13.575,95.755,95.755,0,0,1,12.207,16.354,81.827,81.827,0,0,1,8.166,18.9,75.032,75.032,0,0,1,2.938,20.486A100.046,100.046,0,0,1,221.775,133.354Z" transform="translate(129.068 201.465) rotate(90)"/></g></svg>