<svg xmlns="http://www.w3.org/2000/svg" xmlns:xlink="http://www.w3.org/1999/xlink" width="167" height="215" viewBox="0 0 167 215"><defs><style>.a{fill:#edfafa;}.b{clip-path:url(#a);}.c{fill:url(#b);}</style><clipPath id="a"><rect class="a" width="167" height="215" rx="10" transform="translate(166 131)"/></clipPath><linearGradient id="b" x1="0.5" x2="0.5" y2="1" gradientUnits="objectBoundingBox"><stop offset="0" stop-color="#9de1e3"/><stop offset="1" stop-color="#f1e34d"/></linearGradient></defs><g class="b" transform="translate(-166 -131)"><path class="c" d="M-1004.172,8549.143a106.793,106.793,0,0,0-6.8-20.186,122.259,122.259,0,0,0-24.421-35.478,121.71,121.71,0,0,0-35.815-25.183,121.962,121.962,0,0,0-20.973-7.361c-3.613-.9-7.277-1.652-10.981-2.2-.463-.068-.925-.146-1.389-.208l-1.395-.175c-.465-.061-.93-.123-1.4-.178l-1.4-.139-1.4-.136-1.406-.1-1.406-.1-1.41-.068-1.411-.066-1.414-.029-1.414-.023-1.454.02-1.457.021c-.485.018-.969.047-1.453.07l-1.453.076c-.483.033-.965.082-1.448.12a81.845,81.845,0,0,0-11.429,1.857,91.329,91.329,0,0,0-21.356,8.034,112.613,112.613,0,0,0-18.7,12.374,137.209,137.209,0,0,0-15.961,15.331,150.416,150.416,0,0,0-13.328,17.436q-3,4.588-5.64,9.377t-4.888,9.769c-1.508,3.312-2.869,6.688-4.123,10.1-1.234,3.422-2.357,6.879-3.313,10.381a128.415,128.415,0,0,0-3.995,21.379c-.362,3.608-.544,7.234-.565,10.857-.008,1.814.032,3.611.123,5.441s.245,3.663.48,5.484a65.138,65.138,0,0,0,6.332,20.931,70.811,70.811,0,0,0,12.66,17.563,98.286,98.286,0,0,0,16.663,13.553,146.071,146.071,0,0,0,18.765,10.333q4.865,2.251,9.858,4.218c3.331,1.3,6.7,2.523,10.1,3.641a198.687,198.687,0,0,0,20.739,5.633,186.059,186.059,0,0,0,21.281,3.325,147.291,147.291,0,0,0,21.785.656,96.955,96.955,0,0,0,21.987-3.739,88.425,88.425,0,0,0,20.5-8.934,86.413,86.413,0,0,0,17.391-13.842l.965-.989.481-.5c.156-.171.305-.349.458-.521l1.818-2.078.905-1.037.854-1.083,1.7-2.163.422-.539.4-.561.79-1.123,1.571-2.24,1.458-2.309.726-1.152.362-.576.334-.594a106.651,106.651,0,0,0,8.861-19.636,123.968,123.968,0,0,0,4.99-20.655,140.826,140.826,0,0,0,1.6-21.051A94.107,94.107,0,0,0-1004.172,8549.143Zm-1.207,41.72a90.258,90.258,0,0,1-6.5,19.63,86.9,86.9,0,0,1-10.731,17.369l-.385.5-.411.485-.823.964-1.639,1.921-1.734,1.833-.864.914-.432.457-.456.434-1.815,1.734-.9.865-.948.816-1.89,1.634c-.157.134-.312.271-.472.4l-.493.385-.981.766a92.9,92.9,0,0,1-16.7,10.447,100.538,100.538,0,0,1-18.35,6.669l-2.365.613-2.4.5c-.8.16-1.591.355-2.394.5l-2.417.4-1.208.2-.6.1c-.2.037-.406.051-.608.078l-2.437.3c-1.62.231-3.26.33-4.894.465-6.469.463-13.367.438-20.146.258q-10.2-.29-20.4-1.35a204.622,204.622,0,0,1-20.274-3.146c-3.35-.712-6.686-1.507-9.983-2.439s-6.569-1.96-9.787-3.138a106.594,106.594,0,0,1-18.54-8.771,84.233,84.233,0,0,1-8.435-5.793,72.5,72.5,0,0,1-7.566-6.828,58.833,58.833,0,0,1-11.375-16.607,53.1,53.1,0,0,1-3.214-9.475,54.352,54.352,0,0,1-1.388-9.875c-.08-1.66-.09-3.326-.036-4.986s.175-3.37.331-5.046a99.1,99.1,0,0,1,1.468-10.017,122.082,122.082,0,0,1,5.631-19.416q1.789-4.726,3.923-9.307c1.4-3.059,2.933-6.055,4.534-9.006s3.3-5.849,5.086-8.687,3.66-5.613,5.613-8.327a138.177,138.177,0,0,1,12.766-15.378,123.6,123.6,0,0,1,14.8-13.138,101.565,101.565,0,0,1,16.587-10.2,83.04,83.04,0,0,1,17.934-6.4,71.335,71.335,0,0,1,9.267-1.478c.388-.037.776-.08,1.164-.109l1.166-.069,1.166-.066,1.166-.025,1.168-.025,1.208.01,1.208,0,1.21.037,1.21.037,1.211.07,1.211.065,1.21.1,1.211.093c.4.037.807.082,1.21.123l1.211.125c.4.039.806.1,1.208.149q4.835.611,9.637,1.636a125.418,125.418,0,0,1,18.859,5.68,144.259,144.259,0,0,1,34.894,19.346,117.094,117.094,0,0,1,15.089,13.575,95.824,95.824,0,0,1,12.318,16.354,81.444,81.444,0,0,1,8.24,18.9,74.4,74.4,0,0,1,2.965,20.486A99.175,99.175,0,0,1-1005.379,8590.862Z" transform="translate(8884.575 1193.677) rotate(90)"/></g></svg>