<svg xmlns="http://www.w3.org/2000/svg" width="41.588" height="47.53" viewBox="0 0 41.588 47.53"><defs><style>.a{fill:#dcf8e1;}.b{fill:#fff;}.c{fill:#bef2f5;}.d{fill:#d6f4dd;}.e{fill:#171719;}.f{fill:#bbf0f3;}.g{fill:#216869;}.h{fill:none;stroke:#171719;stroke-linecap:round;}</style></defs><g transform="translate(-32.003)"><g transform="translate(34.972 2.969)"><circle class="a" cx="17.825" cy="17.825" r="17.825"/></g><g transform="translate(34.939 2.941)"><circle class="b" cx="12.626" cy="12.626" r="12.626" transform="translate(0 17.853) rotate(-45)"/></g><g transform="translate(38.09 6.092)"><circle class="c" cx="10.398" cy="10.398" r="10.398" transform="translate(0 14.703) rotate(-45)"/></g><g transform="translate(47.569 15.566)"><circle class="d" cx="5.287" cy="5.287" r="5.287" transform="translate(0 0)"/></g><g transform="translate(49.121 15.595)"><path class="b" d="M218.839,170.492a2.971,2.971,0,0,1,3.939,3.939,1.512,1.512,0,0,0,.256,1.721l.718.718a5.2,5.2,0,1,0-7.352-7.352l.718.718A1.513,1.513,0,0,0,218.839,170.492Z" transform="translate(-216.4 -167.994)"/></g><g transform="translate(46.857 14.854)"><path class="e" d="M197.952,171.89a5.94,5.94,0,1,1,5.94-5.94A5.947,5.947,0,0,1,197.952,171.89Zm0-10.4a4.458,4.458,0,1,0,4.458,4.458A4.463,4.463,0,0,0,197.952,161.492Z" transform="translate(-192.012 -160.01)"/></g><g transform="translate(41.656 28.474)"><path class="f" d="M155.471,308.081l-3.124-1.25a1.486,1.486,0,0,0-1.589.316l-1.551,1.514a2.971,2.971,0,0,1-4.15,0l-1.551-1.514a1.486,1.486,0,0,0-1.589-.316l-3.124,1.25a4.456,4.456,0,0,0-2.8,4.138v10.594a2.228,2.228,0,0,0,2.228,2.228h17.825a2.228,2.228,0,0,0,2.228-2.228V312.218A4.456,4.456,0,0,0,155.471,308.081Z" transform="translate(-135.991 -306.725)"/></g><g transform="translate(55.523 28.474)"><path class="b" d="M290.145,310.15a2.217,2.217,0,0,1,1.4,2.069v8.365a2.228,2.228,0,0,0,2.228,2.228V312.218a4.456,4.456,0,0,0-2.8-4.138l-3.124-1.25a1.485,1.485,0,0,0-1.589.316l-.9.879.211.3Z" transform="translate(-285.359 -306.725)"/></g><g transform="translate(40.915 27.733)"><path class="g" d="M148.8,318.54H130.977a2.973,2.973,0,0,1-2.969-2.969V304.977a5.173,5.173,0,0,1,3.267-4.826l3.124-1.25a2.228,2.228,0,0,1,2.382.474l1.551,1.514a2.217,2.217,0,0,0,3.115,0L143,299.376a2.228,2.228,0,0,1,2.382-.474l3.124,1.25a5.173,5.173,0,0,1,3.267,4.826v10.594A2.973,2.973,0,0,1,148.8,318.54Zm-13.577-18.315a.741.741,0,0,0-.276.053l-3.124,1.25a3.7,3.7,0,0,0-2.335,3.449v10.594a1.489,1.489,0,0,0,1.487,1.487H148.8a1.489,1.489,0,0,0,1.487-1.487V304.977a3.7,3.7,0,0,0-2.335-3.449l-3.124-1.25a.745.745,0,0,0-.8.158l-1.551,1.514a3.69,3.69,0,0,1-5.185,0l-1.551-1.514A.745.745,0,0,0,135.226,300.225Z" transform="translate(-128.008 -298.743)"/></g><g transform="translate(39.43 7.427)"><path class="g" d="M135.966,100.973a.741.741,0,0,1-.621-1.145,11.885,11.885,0,1,0-19.939,0,.741.741,0,1,1-1.243.807,13.367,13.367,0,1,1,22.426,0A.74.74,0,0,1,135.966,100.973Z" transform="translate(-112.008 -80.005)"/></g><g transform="translate(32.003 0)"><path class="g" d="M66.909,35.78a.741.741,0,0,1-.522-1.268,19.312,19.312,0,1,0-27.179,0,.741.741,0,0,1-1.043,1.053,20.794,20.794,0,1,1,29.266,0,.739.739,0,0,1-.522.215Z" transform="translate(-32.003 0)"/></g><g transform="translate(40.915 35.65)"><path class="e" d="M145.089,395.905H130.977a2.973,2.973,0,0,1-2.969-2.969v-8.17a.741.741,0,1,1,1.482,0v8.17a1.489,1.489,0,0,0,1.487,1.487h14.111a.741.741,0,0,1,0,1.482Z" transform="translate(-128.008 -384.025)"/></g><g transform="translate(50.244 18.091)"><path class="h" d="M50.172,15.963v5.279" transform="translate(-47.532 -15.963)"/><path class="h" d="M0,0V5.279" transform="translate(5.279 2.64) rotate(90)"/></g></g></svg>