<svg xmlns="http://www.w3.org/2000/svg" xmlns:xlink="http://www.w3.org/1999/xlink" width="224.186" height="119.902" viewBox="0 0 224.186 119.902">
  <defs>
    <linearGradient id="linear-gradient" x1="0.032" y1="0.982" x2="0.972" y2="1" gradientUnits="objectBoundingBox">
      <stop offset="0" stop-color="#a0a6f1"/>
      <stop offset="0.498" stop-color="#9de1e3"/>
      <stop offset="1" stop-color="#f1e34d"/>
    </linearGradient>
    <filter id="Path_75" x="44.549" y="47.74" width="134.924" height="72.162" filterUnits="userSpaceOnUse">
      <feOffset dy="3" input="SourceAlpha"/>
      <feGaussianBlur stdDeviation="3" result="blur"/>
      <feFlood flood-color="#fff" result="color"/>
      <feComposite operator="out" in="SourceGraphic" in2="blur"/>
      <feComposite operator="in" in="color"/>
      <feComposite operator="in" in2="SourceGraphic"/>
    </filter>
    <clipPath id="clip-path">
      <rect id="Rectangle_2240" data-name="Rectangle 2240" width="95.479" height="84.246" fill="#fff" stroke="#707070" stroke-width="1"/>
    </clipPath>
    <filter id="Union_1" x="56.887" y="30.943" width="72.052" height="104.386" filterUnits="userSpaceOnUse">
      <feOffset dy="3" input="SourceAlpha"/>
      <feGaussianBlur stdDeviation="3" result="blur-2"/>
      <feFlood flood-opacity="0.161"/>
      <feComposite operator="in" in2="blur-2"/>
      <feComposite in="SourceGraphic"/>
    </filter>
  </defs>
  <g id="Group_47" data-name="Group 47" transform="translate(-402 139.902) rotate(-90)">
    <path id="Path_74" data-name="Path 74" d="M0,0C0,66.219,50.186,119.9,112.094,119.9S224.186,66.219,224.186,0" transform="translate(20 626.186) rotate(-90)" fill="url(#linear-gradient)"/>
    <g data-type="innerShadowGroup">
      <path id="Path_75-2" data-name="Path 75" d="M0,72.162C0,32.308,30.2,0,67.462,0s67.462,32.308,67.462,72.162" transform="translate(92.162 446.549) rotate(90)" fill="#fff"/>
      <g transform="matrix(0, 1, -1, 0, 139.9, 402)" filter="url(#Path_75)">
        <path id="Path_75-3" data-name="Path 75" d="M0,72.162C0,32.308,30.2,0,67.462,0s67.462,32.308,67.462,72.162" transform="translate(44.55 47.74)" fill="#fff"/>
      </g>
    </g>
    <g id="Group_46" data-name="Group 46" transform="translate(20.063 462.757)">
      <g id="Mask_Group_6" data-name="Mask Group 6" transform="translate(0 0)" clip-path="url(#clip-path)">
        <g transform="matrix(0, 1, -1, 0, 119.84, -60.76)" filter="url(#Union_1)">
          <path id="Union_1-2" data-name="Union 1" d="M0,48.912a5.142,5.142,0,0,1,7.153-4.73L82.525.348a2.57,2.57,0,0,1,2.583,4.444L10.248,48.328A5.141,5.141,0,1,1,0,48.912Z" transform="translate(65.89 123.33) rotate(-90)" fill="#fff"/>
        </g>
      </g>
    </g>
  </g>
</svg>
