<svg xmlns="http://www.w3.org/2000/svg" width="105.666" height="141.755" viewBox="0 0 105.666 141.755"><defs><style>.a{fill:#cff6df;}.b{fill:#fff;}.c{fill:#39ebac;}.d{fill:#faf5be;}.e{fill:#f1e34d;}.f{fill:#171719;}.g{fill:#283246;}.h{fill:#9de1e3;}.i{fill:#d0f7e0;}.j{fill:#00bebe;}.k{fill:#216869;}</style></defs><g transform="translate(-134.5 -53.245)"><g transform="translate(183.894 73.682)"><g transform="translate(0.777 0.985)"><ellipse class="a" cx="7.217" cy="7.217" rx="7.217" ry="7.217" transform="translate(0 0)"/></g><g transform="translate(2.565 0.812)"><path class="b" d="M207.84,8.068a7.294,7.294,0,0,0-6.561,2.5,2.663,2.663,0,0,0,3.168.5,4.883,4.883,0,0,1,3.586-.483,4.828,4.828,0,0,1,3.526,3.526,4.883,4.883,0,0,1-.483,3.586,2.663,2.663,0,0,0,.5,3.168A7.3,7.3,0,0,0,207.84,8.068Z" transform="translate(-201.279 -8)"/></g><g transform="translate(0)"><path class="c" d="M184.119,16.238a8.119,8.119,0,1,1,8.119-8.119A8.128,8.128,0,0,1,184.119,16.238Zm0-14.614a6.5,6.5,0,1,0,6.5,6.5A6.5,6.5,0,0,0,184.119,1.624Z" transform="translate(-176)"/></g></g><g transform="translate(203.142 63.008)"><g transform="translate(1.085 0.949)"><ellipse class="a" cx="7.217" cy="7.217" rx="7.217" ry="7.217" transform="translate(0 0)"/></g><g transform="translate(2.565 0.812)"><path class="b" d="M207.84,8.068a7.294,7.294,0,0,0-6.561,2.5,2.663,2.663,0,0,0,3.168.5,4.883,4.883,0,0,1,3.586-.483,4.828,4.828,0,0,1,3.526,3.526,4.883,4.883,0,0,1-.483,3.586,2.663,2.663,0,0,0,.5,3.168A7.3,7.3,0,0,0,207.84,8.068Z" transform="translate(-201.279 -8)"/></g><g transform="translate(0)"><path class="c" d="M184.119,16.238a8.119,8.119,0,1,1,8.119-8.119A8.128,8.128,0,0,1,184.119,16.238Zm0-14.614a6.5,6.5,0,1,0,6.5,6.5A6.5,6.5,0,0,0,184.119,1.624Z" transform="translate(-176)"/></g></g><g transform="translate(167.656 53.245)"><g transform="translate(0.875 0.839)"><ellipse class="a" cx="7.262" cy="7.262" rx="7.262" ry="7.262" transform="translate(0 0)"/></g><g transform="translate(2.565 0.812)"><path class="b" d="M207.84,8.068a7.294,7.294,0,0,0-6.561,2.5,2.663,2.663,0,0,0,3.168.5,4.883,4.883,0,0,1,3.586-.483,4.828,4.828,0,0,1,3.526,3.526,4.883,4.883,0,0,1-.483,3.586,2.663,2.663,0,0,0,.5,3.168A7.3,7.3,0,0,0,207.84,8.068Z" transform="translate(-201.279 -8)"/></g><g transform="translate(0)"><path class="c" d="M184.119,16.238a8.119,8.119,0,1,1,8.119-8.119A8.128,8.128,0,0,1,184.119,16.238Zm0-14.614a6.5,6.5,0,1,0,6.5,6.5A6.5,6.5,0,0,0,184.119,1.624Z" transform="translate(-176)"/></g></g><g transform="translate(152.211 80.63)"><g transform="translate(6.809 8.512)"><path class="d" d="M163.581,40H109.107A5.107,5.107,0,0,0,104,45.107v6.809h64.688V45.107A5.107,5.107,0,0,0,163.581,40Z" transform="translate(-104 -40)"/></g><g transform="translate(11.916 8.512)"><path class="b" d="M128,40a5.107,5.107,0,0,0,5.107,5.107h47.665a1.7,1.7,0,0,1,1.7,1.7V114.9a5.107,5.107,0,0,0,5.107,5.107v-73.2A6.809,6.809,0,0,0,180.772,40Z" transform="translate(-128 -40)"/></g><g transform="translate(1.702 20.428)"><path class="d" d="M148.093,182.818H86.809A6.809,6.809,0,0,1,80,176.009v-73.2A6.809,6.809,0,0,1,86.809,96h61.284a6.809,6.809,0,0,1,6.809,6.809v73.2A6.809,6.809,0,0,1,148.093,182.818Z" transform="translate(-80 -96)"/></g><g transform="translate(11.916 20.428)"><path class="b" d="M128,96a5.107,5.107,0,0,0,5.107,5.107h52.772a1.7,1.7,0,0,1,1.7,1.7V170.9a5.107,5.107,0,0,0,5.107,5.107v-73.2A6.809,6.809,0,0,0,185.879,96Z" transform="translate(-128 -96)"/></g><g transform="translate(5.107 6.809)"><path class="e" d="M162.391,47.321a1.7,1.7,0,0,1-1.7-1.7V38.809a3.409,3.409,0,0,0-3.4-3.4H102.809a3.409,3.409,0,0,0-3.4,3.4v6.809a1.7,1.7,0,1,1-3.4,0V38.809A6.817,6.817,0,0,1,102.809,32h54.474a6.817,6.817,0,0,1,6.809,6.809v6.809A1.7,1.7,0,0,1,162.391,47.321Z" transform="translate(-96 -32)"/></g><g transform="translate(0 18.726)"><path class="e" d="M141.8,178.223H80.512A8.521,8.521,0,0,1,72,169.711v-73.2A8.521,8.521,0,0,1,80.512,88H141.8a8.521,8.521,0,0,1,8.512,8.512v73.2A8.521,8.521,0,0,1,141.8,178.223ZM80.512,91.4A5.113,5.113,0,0,0,75.4,96.512v73.2a5.113,5.113,0,0,0,5.107,5.107H141.8a5.113,5.113,0,0,0,5.107-5.107v-73.2A5.113,5.113,0,0,0,141.8,91.4Z" transform="translate(-72 -88)"/></g><g transform="translate(0 49.367)"><path class="f" d="M124.772,291.581H80.512A8.521,8.521,0,0,1,72,283.07V233.7a1.7,1.7,0,0,1,3.4,0V283.07a5.113,5.113,0,0,0,5.107,5.107h44.26a1.7,1.7,0,0,1,0,3.4Z" transform="translate(-72 -232)"/></g><path class="g" d="M188.26,29.232v-8.8a20.428,20.428,0,0,0-40.856,0v8.8a5.107,5.107,0,1,0,3.4,0v-8.8a17.023,17.023,0,0,1,34.046,0v8.8a5.107,5.107,0,1,0,3.4,0Zm-39.153,6.516a1.7,1.7,0,1,1,1.7-1.7A1.7,1.7,0,0,1,149.107,35.749Zm37.451,0a1.7,1.7,0,1,1,1.7-1.7A1.7,1.7,0,0,1,186.558,35.749Z" transform="translate(-128.679 0)"/></g><g transform="translate(134.5 119.457)"><g transform="translate(0 6.812)"><g transform="translate(44.808 44.868)"><circle class="h" cx="6.5" cy="6.5" r="6.5" transform="translate(0.192 0.312)"/></g><g transform="translate(36.274 6.461)"><circle class="i" cx="2.5" cy="2.5" r="2.5" transform="translate(-0.273 -0.281)"/></g><g transform="translate(6.401 6.461)"><circle class="i" cx="2.5" cy="2.5" r="2.5" transform="translate(-0.401 -0.281)"/></g><g transform="translate(36.274 36.333)"><ellipse class="i" cx="2.5" cy="2" rx="2.5" ry="2" transform="translate(-0.273 -0.153)"/></g><g transform="translate(6.401 36.333)"><ellipse class="i" cx="2.5" cy="2" rx="2.5" ry="2" transform="translate(-0.401 -0.153)"/></g><g transform="translate(14.225 14.285)"><circle class="c" cx="9.5" cy="9.5" r="9.5" transform="translate(-0.224 -0.105)"/></g><g transform="translate(13.961 13.961)"><path class="i" d="M331.705,104a9.609,9.609,0,0,0,1.874,5.7,12.951,12.951,0,0,1-5.837,5.837,9.61,9.61,0,0,0-5.7-1.874A9.665,9.665,0,0,0,331.705,104Z" transform="translate(-322.04 -104)"/></g><g transform="translate(12.887 12.887)"><path class="j" d="M266.739,117.479a1.074,1.074,0,0,0,1.074-1.074,8.6,8.6,0,0,1,8.591-8.591,1.074,1.074,0,0,0,0-2.148,8.6,8.6,0,0,1-8.591-8.591,1.074,1.074,0,0,0-2.148,0,8.6,8.6,0,0,1-8.591,8.591,1.074,1.074,0,0,0,0,2.148,8.6,8.6,0,0,1,8.591,8.591A1.074,1.074,0,0,0,266.739,117.479Zm4.986-10.739a10.81,10.81,0,0,0-4.986,4.986,10.81,10.81,0,0,0-4.986-4.986,10.81,10.81,0,0,0,4.986-4.986A10.81,10.81,0,0,0,271.725,106.739Z" transform="translate(-256 -96)"/></g><g transform="translate(44.031 44.031)"><path class="k" d="M79.517,343.035a1.074,1.074,0,0,0,1.074-1.074,5.376,5.376,0,0,1,5.37-5.37,1.074,1.074,0,1,0,0-2.148,5.376,5.376,0,0,1-5.37-5.37,1.074,1.074,0,0,0-2.148,0,5.376,5.376,0,0,1-5.37,5.37,1.074,1.074,0,1,0,0,2.148,5.376,5.376,0,0,1,5.37,5.37A1.074,1.074,0,0,0,79.517,343.035Zm2.575-7.517a7.579,7.579,0,0,0-2.575,2.575,7.578,7.578,0,0,0-2.575-2.575,7.579,7.579,0,0,0,2.575-2.575A7.58,7.58,0,0,0,82.092,335.517Z" transform="translate(-72 -328)"/></g><g transform="translate(22.552)"><path class="c" d="M329.074,10.739a1.074,1.074,0,0,0,1.074-1.074V1.074a1.074,1.074,0,1,0-2.148,0V9.665A1.074,1.074,0,0,0,329.074,10.739Z" transform="translate(-328)"/></g><g transform="translate(22.552 36.513)"><path class="c" d="M329.074,282.739a1.074,1.074,0,0,0,1.074-1.074v-8.591a1.074,1.074,0,0,0-2.148,0v8.591A1.074,1.074,0,0,0,329.074,282.739Z" transform="translate(-328 -272)"/></g><g transform="translate(0 22.552)"><path class="c" d="M433.074,170.148h8.591a1.074,1.074,0,0,0,0-2.148h-8.591a1.074,1.074,0,0,0,0,2.148Z" transform="translate(-432 -168)"/></g><g transform="translate(36.513 22.552)"><path class="c" d="M161.074,170.148h8.591a1.074,1.074,0,0,0,0-2.148h-8.591a1.074,1.074,0,0,0,0,2.148Z" transform="translate(-160 -168)"/></g><g transform="translate(28.996 28.996)"><path class="i" d="M253.369,222.444a1.074,1.074,0,0,0,.759-1.833l-4.3-4.3a1.074,1.074,0,0,0-1.519,1.519l4.3,4.3A1.07,1.07,0,0,0,253.369,222.444Z" transform="translate(-247.999 -216.001)"/></g><g transform="translate(11.813 11.813)"><path class="i" d="M381.369,94.444a1.074,1.074,0,0,0,.759-1.833l-4.3-4.3a1.074,1.074,0,1,0-1.519,1.519l4.3,4.3A1.07,1.07,0,0,0,381.369,94.444Z" transform="translate(-375.999 -88.001)"/></g><g transform="translate(28.996 11.813)"><path class="i" d="M249.073,94.444a1.071,1.071,0,0,0,.759-.315l4.3-4.3a1.074,1.074,0,0,0-1.519-1.519l-4.3,4.3a1.074,1.074,0,0,0,.759,1.833Z" transform="translate(-247.999 -88.001)"/></g><g transform="translate(11.813 28.996)"><path class="i" d="M377.073,222.444a1.071,1.071,0,0,0,.759-.315l4.3-4.3a1.074,1.074,0,0,0-1.519-1.519l-4.3,4.3a1.074,1.074,0,0,0,.759,1.833Z" transform="translate(-375.999 -216.001)"/></g><g transform="translate(35.44 5.37)"><path class="j" d="M203.222,46.444A3.222,3.222,0,1,0,200,43.222,3.225,3.225,0,0,0,203.222,46.444Zm0-4.3a1.074,1.074,0,1,1-1.074,1.074A1.075,1.075,0,0,1,203.222,42.148Z" transform="translate(-200 -40)"/></g><g transform="translate(5.37 5.37)"><path class="j" d="M427.222,46.444A3.222,3.222,0,1,0,424,43.222,3.225,3.225,0,0,0,427.222,46.444Zm0-4.3a1.074,1.074,0,1,1-1.074,1.074A1.075,1.075,0,0,1,427.222,42.148Z" transform="translate(-424 -40)"/></g><g transform="translate(35.44 35.44)"><path class="j" d="M203.222,270.444A3.222,3.222,0,1,0,200,267.222,3.225,3.225,0,0,0,203.222,270.444Zm0-4.3a1.074,1.074,0,1,1-1.074,1.074A1.075,1.075,0,0,1,203.222,266.148Z" transform="translate(-200 -264)"/></g><g transform="translate(5.37 35.44)"><path class="j" d="M427.222,270.444A3.222,3.222,0,1,0,424,267.222,3.225,3.225,0,0,0,427.222,270.444Zm0-4.3a1.074,1.074,0,1,1-1.074,1.074A1.075,1.075,0,0,1,427.222,266.148Z" transform="translate(-424 -264)"/></g><g transform="translate(50.475 34.366)"><path class="c" d="M121.074,263.517a1.074,1.074,0,0,0,1.074-1.074v-5.37a1.074,1.074,0,0,0-2.148,0v5.37A1.074,1.074,0,0,0,121.074,263.517Z" transform="translate(-120 -256)"/></g><g transform="translate(50.475 61.214)"><path class="c" d="M121.074,463.517a1.074,1.074,0,0,0,1.074-1.074v-5.37a1.074,1.074,0,0,0-2.148,0v5.37A1.074,1.074,0,0,0,121.074,463.517Z" transform="translate(-120 -456)"/></g><g transform="translate(34.366 50.475)"><path class="c" d="M201.074,378.148h5.37a1.074,1.074,0,0,0,0-2.148h-5.37a1.074,1.074,0,0,0,0,2.148Z" transform="translate(-200 -376)"/></g><g transform="translate(61.214 50.475)"><path class="c" d="M1.074,378.148h5.37a1.074,1.074,0,0,0,0-2.148H1.074a1.074,1.074,0,0,0,0,2.148Z" transform="translate(0 -376)"/></g><g transform="translate(41.883 41.883)"><path class="h" d="M164.295,317.371a1.074,1.074,0,0,0,.759-1.833l-3.222-3.222a1.074,1.074,0,0,0-1.519,1.519l3.222,3.222A1.07,1.07,0,0,0,164.295,317.371Z" transform="translate(-159.999 -312.001)"/></g><g transform="translate(55.844 41.883)"><path class="h" d="M57.073,317.371a1.071,1.071,0,0,0,.759-.315l3.222-3.222a1.074,1.074,0,1,0-1.519-1.519l-3.222,3.222a1.074,1.074,0,0,0,.759,1.833Z" transform="translate(-55.999 -312.001)"/></g><g transform="translate(55.844 55.844)"><path class="h" d="M60.295,421.37a1.074,1.074,0,0,0,.759-1.833l-3.222-3.222a1.074,1.074,0,1,0-1.519,1.519l3.222,3.222A1.07,1.07,0,0,0,60.295,421.37Z" transform="translate(-55.999 -416.001)"/></g><g transform="translate(41.883 55.844)"><path class="h" d="M161.073,421.37a1.071,1.071,0,0,0,.759-.315l3.222-3.222a1.074,1.074,0,0,0-1.519-1.519l-3.222,3.222a1.074,1.074,0,0,0,.759,1.833Z" transform="translate(-159.999 -416.001)"/></g><g transform="translate(22.552 22.552)"><path class="f" d="M257.074,179.813a1.074,1.074,0,0,0,1.074-1.074,8.6,8.6,0,0,1,8.591-8.591,1.074,1.074,0,1,0,0-2.148A10.751,10.751,0,0,0,256,178.739,1.074,1.074,0,0,0,257.074,179.813Z" transform="translate(-256 -168)"/></g><g transform="translate(50.475 50.475)"><path class="f" d="M73.074,384.591a1.074,1.074,0,0,0,1.074-1.074,5.376,5.376,0,0,1,5.37-5.37,1.074,1.074,0,0,0,0-2.148A7.526,7.526,0,0,0,72,383.517,1.074,1.074,0,0,0,73.074,384.591Z" transform="translate(-72 -376)"/></g></g><g transform="translate(78.487 0)"><g transform="translate(8.259 8.306)"><circle class="h" cx="5.344" cy="5.344" r="5.344" transform="translate(0 0)"/></g><g transform="translate(7.644 7.644)"><path class="k" d="M77.945,339.891a.849.849,0,0,0,.849-.849,4.252,4.252,0,0,1,4.247-4.247.849.849,0,1,0,0-1.7,4.252,4.252,0,0,1-4.247-4.247.849.849,0,0,0-1.7,0,4.252,4.252,0,0,1-4.247,4.247.849.849,0,0,0,0,1.7,4.252,4.252,0,0,1,4.247,4.247A.849.849,0,0,0,77.945,339.891Zm2.036-5.945a5.993,5.993,0,0,0-2.036,2.036,5.994,5.994,0,0,0-2.036-2.036,5.993,5.993,0,0,0,2.036-2.036,5.994,5.994,0,0,0,2.036,2.036Z" transform="translate(-72 -328)"/></g><g transform="translate(12.74 0)"><path class="c" d="M120.849,261.945a.849.849,0,0,0,.849-.849v-4.247a.849.849,0,0,0-1.7,0V261.1A.849.849,0,0,0,120.849,261.945Z" transform="translate(-120 -256)"/></g><g transform="translate(12.74 21.234)"><path class="c" d="M120.849,461.945a.849.849,0,0,0,.849-.849v-4.247a.849.849,0,0,0-1.7,0V461.1A.849.849,0,0,0,120.849,461.945Z" transform="translate(-120 -456)"/></g><g transform="translate(0 12.74)"><path class="c" d="M200.849,377.7H205.1a.849.849,0,0,0,0-1.7h-4.247a.849.849,0,0,0,0,1.7Z" transform="translate(-200 -376)"/></g><g transform="translate(21.234 12.74)"><path class="c" d="M.849,377.7H5.1a.849.849,0,0,0,0-1.7H.849a.849.849,0,0,0,0,1.7Z" transform="translate(0 -376)"/></g><g transform="translate(5.946 5.945)"><path class="h" d="M163.4,316.248a.849.849,0,0,0,.6-1.45l-2.548-2.548a.849.849,0,1,0-1.2,1.2L162.8,316A.846.846,0,0,0,163.4,316.248Z" transform="translate(-159.999 -312.001)"/></g><g transform="translate(16.987 5.945)"><path class="h" d="M56.849,316.248a.847.847,0,0,0,.6-.249L60,313.451a.849.849,0,1,0-1.2-1.2L56.248,314.8a.849.849,0,0,0,.6,1.45Z" transform="translate(-55.999 -312.001)"/></g><g transform="translate(16.987 16.987)"><path class="h" d="M59.4,420.248a.849.849,0,0,0,.6-1.45l-2.548-2.548a.849.849,0,1,0-1.2,1.2L58.8,420a.846.846,0,0,0,.6.249Z" transform="translate(-55.999 -416.001)"/></g><g transform="translate(5.946 16.987)"><path class="h" d="M160.849,420.248a.847.847,0,0,0,.6-.249L164,417.451a.849.849,0,0,0-1.2-1.2l-2.548,2.548a.849.849,0,0,0,.6,1.45Z" transform="translate(-159.999 -416.001)"/></g><g transform="translate(12.74 12.74)"><path class="f" d="M72.849,382.795a.849.849,0,0,0,.849-.849,4.251,4.251,0,0,1,4.247-4.247.849.849,0,0,0,0-1.7A5.952,5.952,0,0,0,72,381.945.849.849,0,0,0,72.849,382.795Z" transform="translate(-72 -376)"/></g></g></g></g></svg>