<svg xmlns="http://www.w3.org/2000/svg" width="99.477" height="77.716" viewBox="0 0 99.477 77.716">
  <g id="strongbox" transform="translate(0 -56)">
    <g id="Group_258" data-name="Group 258" transform="translate(6.217 125.945)">
      <path id="Path_207" data-name="Path 207" d="M32,419.109a3.109,3.109,0,0,0,3.109,3.109h9.326a3.109,3.109,0,0,0,3.109-3.109V416H32Z" transform="translate(-32 -416)" fill="#fff"/>
    </g>
    <g id="Group_259" data-name="Group 259" transform="translate(77.716 125.945)">
      <path id="Path_208" data-name="Path 208" d="M400,416v3.109a3.109,3.109,0,0,0,3.109,3.109h9.326a3.109,3.109,0,0,0,3.109-3.109V416Z" transform="translate(-400 -416)" fill="#fff"/>
    </g>
    <g id="Group_260" data-name="Group 260" transform="translate(1.554 57.554)">
      <path id="Path_209" data-name="Path 209" d="M99.705,64H12.663A4.663,4.663,0,0,0,8,68.663v59.064a4.663,4.663,0,0,0,4.663,4.663H99.705a4.663,4.663,0,0,0,4.663-4.663V68.663A4.663,4.663,0,0,0,99.705,64Z" transform="translate(-8 -64)" fill="#cbdae9"/>
    </g>
    <g id="Group_261" data-name="Group 261" transform="translate(52.847 80.869)">
      <circle id="Ellipse_38" data-name="Ellipse 38" cx="11" cy="11" r="11" transform="translate(0.153 -0.153)" fill="#9eb2cb"/>
    </g>
    <g id="Group_262" data-name="Group 262" transform="translate(82.379 77.761)">
      <path id="Path_210" data-name="Path 210" d="M427.109,168A3.109,3.109,0,0,0,424,171.109v21.761a3.109,3.109,0,0,0,3.109,3.109h3.109V168Z" transform="translate(-424 -168)" fill="#9eb2cb"/>
    </g>
    <g id="Group_263" data-name="Group 263" transform="translate(1.554 73.098)">
      <path id="Path_211" data-name="Path 211" d="M20.435,147.109A3.109,3.109,0,0,0,17.326,144H8v6.217h9.326A3.109,3.109,0,0,0,20.435,147.109Z" transform="translate(-8 -144)" fill="#9eb2cb"/>
    </g>
    <g id="Group_264" data-name="Group 264" transform="translate(1.554 104.184)">
      <path id="Path_212" data-name="Path 212" d="M17.326,304H8v6.217h9.326a3.109,3.109,0,1,0,0-6.217Z" transform="translate(-8 -304)" fill="#9eb2cb"/>
    </g>
    <g id="Group_265" data-name="Group 265" transform="translate(12.435 57.554)">
      <path id="Path_213" data-name="Path 213" d="M144.825,64H64a4.663,4.663,0,0,0,4.663,4.663h68.39a7.772,7.772,0,0,1,7.772,7.772v40.413a4.663,4.663,0,0,0,4.663,4.663V68.663A4.663,4.663,0,0,0,144.825,64Z" transform="translate(-64 -64)" fill="#fff"/>
    </g>
    <path id="Path_214" data-name="Path 214" d="M93.26,56H6.217A6.224,6.224,0,0,0,0,62.217v59.064A6.228,6.228,0,0,0,4.663,127.3v1.751a4.668,4.668,0,0,0,4.663,4.663h9.326a4.668,4.668,0,0,0,4.663-4.663V127.5H76.162v1.554a4.668,4.668,0,0,0,4.663,4.663h9.326a4.668,4.668,0,0,0,4.663-4.663V127.3a6.229,6.229,0,0,0,4.663-6.021V62.217A6.224,6.224,0,0,0,93.26,56ZM20.206,129.053a1.556,1.556,0,0,1-1.554,1.554H9.326a1.556,1.556,0,0,1-1.554-1.554V127.5H20.206Zm69.945,1.554H80.825a1.556,1.556,0,0,1-1.554-1.554V127.5H91.705v1.554A1.556,1.556,0,0,1,90.151,130.608Zm6.217-9.326a3.112,3.112,0,0,1-3.109,3.109H6.217a3.112,3.112,0,0,1-3.109-3.109V62.217a3.112,3.112,0,0,1,3.109-3.109H93.26a3.112,3.112,0,0,1,3.109,3.109Z" fill="#6e8099"/>
    <g id="Group_266" data-name="Group 266" transform="translate(9.326 77.761)">
      <path id="Path_215" data-name="Path 215" d="M49.554,195.978A1.554,1.554,0,0,1,48,194.424V169.554a1.554,1.554,0,1,1,3.109,0v24.869A1.554,1.554,0,0,1,49.554,195.978Z" transform="translate(-48 -168)" fill="#6e8099"/>
    </g>
    <path id="Path_216" data-name="Path 216" d="M124.162,104h-71.5A4.668,4.668,0,0,0,48,108.663v3.109a1.554,1.554,0,0,0,3.109,0v-3.109a1.556,1.556,0,0,1,1.554-1.554h71.5a1.556,1.556,0,0,1,1.554,1.554v6.217h-1.554a4.668,4.668,0,0,0-4.663,4.663V141.3a4.668,4.668,0,0,0,4.663,4.663h1.554v6.217a1.556,1.556,0,0,1-1.554,1.554h-71.5a1.556,1.556,0,0,1-1.554-1.554v-3.109a1.554,1.554,0,0,0-3.109,0v3.109a4.668,4.668,0,0,0,4.663,4.663h71.5a4.668,4.668,0,0,0,4.663-4.663V108.663A4.668,4.668,0,0,0,124.162,104Zm0,38.858a1.556,1.556,0,0,1-1.554-1.554V119.543a1.556,1.556,0,0,1,1.554-1.554h1.554v24.869Z" transform="translate(-38.674 -38.674)" fill="#6e8099"/>
    <g id="Group_267" data-name="Group 267" transform="translate(51.293 79.315)">
      <path id="Path_217" data-name="Path 217" d="M276.435,200.869a12.435,12.435,0,1,1,12.435-12.435A12.449,12.449,0,0,1,276.435,200.869Zm0-21.761a9.326,9.326,0,1,0,9.326,9.326A9.337,9.337,0,0,0,276.435,179.109Z" transform="translate(-264 -176)" fill="#1e2e45"/>
    </g>
    <g id="Group_268" data-name="Group 268" transform="translate(57.51 85.532)">
      <path id="Path_218" data-name="Path 218" d="M302.217,220.435a6.217,6.217,0,1,1,6.217-6.217A6.224,6.224,0,0,1,302.217,220.435Zm0-9.326a3.109,3.109,0,1,0,3.109,3.109A3.112,3.112,0,0,0,302.217,211.109Z" transform="translate(-296 -208)" fill="#fff"/>
    </g>
    <g id="Group_269" data-name="Group 269" transform="translate(0 71.543)">
      <path id="Path_219" data-name="Path 219" d="M1.554,145.326H10.88a4.663,4.663,0,1,0,0-9.326H1.554A1.554,1.554,0,0,0,0,137.554v6.217A1.554,1.554,0,0,0,1.554,145.326Zm1.554-6.217H10.88a1.554,1.554,0,1,1,0,3.109H3.109Z" transform="translate(0 -136)" fill="#1e2e45"/>
      <path id="Path_220" data-name="Path 220" d="M57.51,317.761H6.217a3.112,3.112,0,0,1-3.109-3.109v-9.326H10.88a4.663,4.663,0,0,0,0-9.326H1.554A1.554,1.554,0,0,0,0,297.554v17.1a6.224,6.224,0,0,0,6.217,6.217H57.51a1.554,1.554,0,1,0,0-3.109Zm-45.076-17.1a1.556,1.556,0,0,1-1.554,1.554H3.109v-3.109H10.88A1.556,1.556,0,0,1,12.435,300.663Z" transform="translate(0 -264.913)" fill="#1e2e45"/>
    </g>
  </g>
</svg>
