<svg xmlns="http://www.w3.org/2000/svg" xmlns:xlink="http://www.w3.org/1999/xlink" width="393" height="851" viewBox="0 0 393 851"><defs><style>.a{fill:#171719;stroke:#707070;}.b{clip-path:url(#a);}.c{fill:url(#b);}</style><clipPath id="a"><rect class="a" width="393" height="851"/></clipPath><linearGradient id="b" x1="0.5" x2="0.5" y2="1" gradientUnits="objectBoundingBox"><stop offset="0" stop-color="#9de1e3"/><stop offset="1" stop-color="#f1e34d"/></linearGradient></defs><g class="b"><path class="c" d="M-777.667,8641.391a214.332,214.332,0,0,0-13.643-40.508,245.332,245.332,0,0,0-49.006-71.191,244.291,244.291,0,0,0-71.869-50.535,244.782,244.782,0,0,0-42.086-14.77c-7.251-1.816-14.6-3.316-22.035-4.422-.93-.137-1.856-.293-2.788-.418l-2.8-.352c-.934-.121-1.865-.246-2.8-.355l-2.811-.277-2.813-.273-2.822-.207-2.822-.2-2.83-.137-2.831-.133-2.837-.059-2.837-.047-2.918.039-2.923.043c-.973.035-1.944.094-2.916.141l-2.916.152c-.97.066-1.937.164-2.905.242a164.188,164.188,0,0,0-22.935,3.727,183.268,183.268,0,0,0-42.854,16.121A225.994,225.994,0,0,0-1125.2,8502.8a275.31,275.31,0,0,0-32.028,30.766,301.531,301.531,0,0,0-26.745,34.988q-6.018,9.205-11.318,18.816-5.278,9.609-9.809,19.6c-3.026,6.645-5.758,13.422-8.273,20.262-2.477,6.867-4.73,13.8-6.648,20.832a257.694,257.694,0,0,0-8.017,42.9c-.727,7.242-1.091,14.52-1.133,21.789-.017,3.641.063,7.246.247,10.918s.491,7.352.963,11.008a130.708,130.708,0,0,0,12.707,42,142.086,142.086,0,0,0,25.405,35.246,197.349,197.349,0,0,0,33.438,27.2,292.909,292.909,0,0,0,37.655,20.734q9.763,4.518,19.781,8.465c6.684,2.609,13.436,5.063,20.259,7.3a398.973,398.973,0,0,0,41.617,11.3,374.153,374.153,0,0,0,42.7,6.672,295.745,295.745,0,0,0,43.717,1.316,194.434,194.434,0,0,0,44.121-7.5,177.435,177.435,0,0,0,41.14-17.926,173.471,173.471,0,0,0,34.9-27.777l1.938-1.984.965-1c.313-.344.612-.7.919-1.043l3.647-4.172,1.816-2.082,1.713-2.172,3.4-4.34.847-1.082.794-1.125,1.585-2.254,3.153-4.5,2.926-4.633,1.457-2.312.726-1.156.671-1.191a214,214,0,0,0,17.781-39.4,248.767,248.767,0,0,0,10.013-41.449,282.592,282.592,0,0,0,3.215-42.242A188.849,188.849,0,0,0-777.667,8641.391Zm-2.423,83.719a181.114,181.114,0,0,1-13.052,39.391,174.35,174.35,0,0,1-21.533,34.855l-.773,1.008-.825.973-1.65,1.934-3.289,3.855-3.48,3.68-1.733,1.832-.866.918-.914.871-3.642,3.48-1.812,1.734-1.9,1.641-3.792,3.277c-.315.27-.626.543-.947.809l-.989.773-1.969,1.535a186.442,186.442,0,0,1-33.517,20.965,201.623,201.623,0,0,1-36.822,13.383l-4.745,1.23-4.807.992c-1.6.324-3.192.715-4.8,1l-4.851.8-2.425.4-1.212.2c-.4.074-.814.1-1.221.156l-4.891.594c-3.25.465-6.541.664-9.821.934-12.981.93-26.823.879-40.426.516q-20.468-.58-40.944-2.707a410.237,410.237,0,0,1-40.684-6.312c-6.722-1.43-13.416-3.023-20.033-4.895-6.621-1.852-13.183-3.934-19.639-6.3a213.909,213.909,0,0,1-37.205-17.6,168.774,168.774,0,0,1-16.926-11.625,145.3,145.3,0,0,1-15.183-13.7,118.034,118.034,0,0,1-22.825-33.324,106.563,106.563,0,0,1-6.449-19.012,109.094,109.094,0,0,1-2.786-19.816c-.161-3.332-.18-6.676-.073-10.008.111-3.355.352-6.762.664-10.125a198.931,198.931,0,0,1,2.945-20.1,245.069,245.069,0,0,1,11.3-38.961q3.59-9.48,7.873-18.676c2.816-6.137,5.887-12.148,9.1-18.07s6.619-11.738,10.205-17.434,7.344-11.266,11.264-16.711a277.19,277.19,0,0,1,25.617-30.859,248.022,248.022,0,0,1,29.7-26.363,203.93,203.93,0,0,1,33.286-20.473,166.623,166.623,0,0,1,35.987-12.848,143.276,143.276,0,0,1,18.6-2.965c.778-.074,1.557-.16,2.336-.219l2.339-.141,2.339-.133,2.34-.051,2.344-.051,2.425.02,2.425.008,2.429.074,2.428.074,2.431.141,2.43.133,2.429.191,2.431.188c.811.074,1.619.164,2.428.246l2.431.25c.81.078,1.617.2,2.425.3q9.7,1.225,19.339,3.281a251.778,251.778,0,0,1,37.844,11.4A289.456,289.456,0,0,1-853.4,8544.5a235.02,235.02,0,0,1,30.278,27.242,192.225,192.225,0,0,1,24.719,32.816,163.413,163.413,0,0,1,16.535,37.918,149.292,149.292,0,0,1,5.95,41.109A199.014,199.014,0,0,1-780.089,8725.109Z" transform="translate(9069.373 992.24) rotate(90)"/><path class="c" d="M-777.667,8641.391a214.332,214.332,0,0,0-13.643-40.508,245.332,245.332,0,0,0-49.006-71.191,244.291,244.291,0,0,0-71.869-50.535,244.782,244.782,0,0,0-42.086-14.77c-7.251-1.816-14.6-3.316-22.035-4.422-.93-.137-1.856-.293-2.788-.418l-2.8-.352c-.934-.121-1.865-.246-2.8-.355l-2.811-.277-2.813-.273-2.822-.207-2.822-.2-2.83-.137-2.831-.133-2.837-.059-2.837-.047-2.918.039-2.923.043c-.973.035-1.944.094-2.916.141l-2.916.152c-.97.066-1.937.164-2.905.242a164.188,164.188,0,0,0-22.935,3.727,183.268,183.268,0,0,0-42.854,16.121A225.994,225.994,0,0,0-1125.2,8502.8a275.31,275.31,0,0,0-32.028,30.766,301.531,301.531,0,0,0-26.745,34.988q-6.018,9.205-11.318,18.816-5.278,9.609-9.809,19.6c-3.026,6.645-5.758,13.422-8.273,20.262-2.477,6.867-4.73,13.8-6.648,20.832a257.694,257.694,0,0,0-8.017,42.9c-.727,7.242-1.091,14.52-1.133,21.789-.017,3.641.063,7.246.247,10.918s.491,7.352.963,11.008a130.708,130.708,0,0,0,12.707,42,142.086,142.086,0,0,0,25.405,35.246,197.349,197.349,0,0,0,33.438,27.2,292.909,292.909,0,0,0,37.655,20.734q9.763,4.518,19.781,8.465c6.684,2.609,13.436,5.063,20.259,7.3a398.973,398.973,0,0,0,41.617,11.3,374.153,374.153,0,0,0,42.7,6.672,295.745,295.745,0,0,0,43.717,1.316,194.434,194.434,0,0,0,44.121-7.5,177.435,177.435,0,0,0,41.14-17.926,173.471,173.471,0,0,0,34.9-27.777l1.938-1.984.965-1c.313-.344.612-.7.919-1.043l3.647-4.172,1.816-2.082,1.713-2.172,3.4-4.34.847-1.082.794-1.125,1.585-2.254,3.153-4.5,2.926-4.633,1.457-2.312.726-1.156.671-1.191a214,214,0,0,0,17.781-39.4,248.767,248.767,0,0,0,10.013-41.449,282.592,282.592,0,0,0,3.215-42.242A188.849,188.849,0,0,0-777.667,8641.391Zm-2.423,83.719a181.114,181.114,0,0,1-13.052,39.391,174.35,174.35,0,0,1-21.533,34.855l-.773,1.008-.825.973-1.65,1.934-3.289,3.855-3.48,3.68-1.733,1.832-.866.918-.914.871-3.642,3.48-1.812,1.734-1.9,1.641-3.792,3.277c-.315.27-.626.543-.947.809l-.989.773-1.969,1.535a186.442,186.442,0,0,1-33.517,20.965,201.623,201.623,0,0,1-36.822,13.383l-4.745,1.23-4.807.992c-1.6.324-3.192.715-4.8,1l-4.851.8-2.425.4-1.212.2c-.4.074-.814.1-1.221.156l-4.891.594c-3.25.465-6.541.664-9.821.934-12.981.93-26.823.879-40.426.516q-20.468-.58-40.944-2.707a410.237,410.237,0,0,1-40.684-6.312c-6.722-1.43-13.416-3.023-20.033-4.895-6.621-1.852-13.183-3.934-19.639-6.3a213.909,213.909,0,0,1-37.205-17.6,168.774,168.774,0,0,1-16.926-11.625,145.3,145.3,0,0,1-15.183-13.7,118.034,118.034,0,0,1-22.825-33.324,106.563,106.563,0,0,1-6.449-19.012,109.094,109.094,0,0,1-2.786-19.816c-.161-3.332-.18-6.676-.073-10.008.111-3.355.352-6.762.664-10.125a198.931,198.931,0,0,1,2.945-20.1,245.069,245.069,0,0,1,11.3-38.961q3.59-9.48,7.873-18.676c2.816-6.137,5.887-12.148,9.1-18.07s6.619-11.738,10.205-17.434,7.344-11.266,11.264-16.711a277.19,277.19,0,0,1,25.617-30.859,248.022,248.022,0,0,1,29.7-26.363,203.93,203.93,0,0,1,33.286-20.473,166.623,166.623,0,0,1,35.987-12.848,143.276,143.276,0,0,1,18.6-2.965c.778-.074,1.557-.16,2.336-.219l2.339-.141,2.339-.133,2.34-.051,2.344-.051,2.425.02,2.425.008,2.429.074,2.428.074,2.431.141,2.43.133,2.429.191,2.431.188c.811.074,1.619.164,2.428.246l2.431.25c.81.078,1.617.2,2.425.3q9.7,1.225,19.339,3.281a251.778,251.778,0,0,1,37.844,11.4A289.456,289.456,0,0,1-853.4,8544.5a235.02,235.02,0,0,1,30.278,27.242,192.225,192.225,0,0,1,24.719,32.816,163.413,163.413,0,0,1,16.535,37.918,149.292,149.292,0,0,1,5.95,41.109A199.014,199.014,0,0,1-780.089,8725.109Z" transform="translate(8686.373 1905.24) rotate(90)"/></g></svg>